<?xml version="1.0" standalone="no"?><!DOCTYPE svg PUBLIC "-//W3C//DTD SVG 1.1//EN" "http://www.w3.org/Graphics/SVG/1.1/DTD/svg11.dtd"><svg class="icon" width="200px" height="200.00px" viewBox="0 0 1024 1024" version="1.1" xmlns="http://www.w3.org/2000/svg"><path fill="#333333" d="M511.99875 0.77999c-282.340303 0-511.21876 228.878456-511.21876 511.21876 0 282.341553 228.878456 511.22001 511.21876 511.22001 282.336554 0 511.22001-228.878456 511.22001-511.22001C1023.22001 229.663446 794.336554 0.77999 511.99875 0.77999L511.99875 0.77999zM511.99875 972.093134c-254.108148 0-460.096884-205.993735-460.096884-460.096884 0-254.104398 205.988735-460.093134 460.096884-460.093134 254.104398 0 460.098134 205.988735 460.098134 460.093134C972.098134 766.099398 766.104398 972.093134 511.99875 972.093134L511.99875 972.093134zM352.396948 332.519691l92.958865 0 0 358.961868-92.958865 0 0-358.961868ZM578.644186 332.519691l92.958865 0 0 358.961868-92.958865 0 0-358.961868Z" /></svg>